<svg width="25" height="23" viewBox="0 0 25 23" fill="none" xmlns="http://www.w3.org/2000/svg">
<path d="M19.3312 23C19.0879 22.9993 18.8453 22.9742 18.6077 22.9251C14.0831 22.0445 9.91469 19.9798 6.58232 16.9686C3.32105 13.9509 1.05919 10.1086 0.0703902 5.90667C-0.0462013 5.38299 -0.0175851 4.83988 0.153486 4.32962C0.324556 3.81935 0.632324 3.35909 1.04718 2.99312L3.94137 0.372283C4.08919 0.240757 4.26484 0.140036 4.45684 0.0766958C4.64884 0.0133551 4.85287 -0.011182 5.05563 0.00468595C5.26587 0.0253211 5.46875 0.0890382 5.65 0.191357C5.83126 0.293675 5.98649 0.43211 6.10478 0.596926L9.72251 5.62757C9.85818 5.82276 9.92367 6.05378 9.90934 6.28661C9.89501 6.51944 9.80163 6.7418 9.64292 6.92097L7.82682 8.96317C8.55011 10.4693 9.57444 11.8305 10.844 12.9727C12.1054 14.1564 13.5963 15.1015 15.2359 15.7569L17.4862 14.0755C17.6752 13.935 17.9052 13.8519 18.1455 13.8373C18.3859 13.8227 18.6254 13.8773 18.832 13.9938L24.2948 17.3158C24.4822 17.4211 24.6419 17.565 24.7619 17.7366C24.8819 17.9082 24.959 18.1032 24.9876 18.3068C25.0161 18.5105 24.9953 18.7176 24.9267 18.9126C24.8581 19.1076 24.7435 19.2855 24.5914 19.4329L21.7696 22.0605C21.449 22.3606 21.0686 22.5981 20.6501 22.7593C20.2316 22.9206 19.7834 23.0023 19.3312 23ZM4.93986 1.35254L2.04567 3.97338C1.8123 4.17797 1.63954 4.4362 1.54439 4.72265C1.44924 5.00911 1.43498 5.31393 1.50301 5.60714C2.42244 9.55006 4.53592 13.1581 7.58805 15.9952C10.724 18.8281 14.6467 20.7701 18.9043 21.5976C19.2266 21.661 19.5606 21.6482 19.8763 21.5603C20.1919 21.4723 20.4795 21.3121 20.7132 21.0939L23.535 18.4662L18.2604 15.26L15.8437 17.0707C15.7512 17.1396 15.6422 17.1862 15.5262 17.2064C15.4101 17.2265 15.2906 17.2197 15.1781 17.1865C13.1714 16.4909 11.353 15.3867 9.85275 13.953C8.301 12.5896 7.09649 10.9142 6.32908 9.05167C6.29661 8.93892 6.29553 8.8202 6.32594 8.70694C6.35636 8.59368 6.41724 8.48969 6.50273 8.40497L8.4563 6.20619L4.93986 1.35254Z" fill="#FFD1A2"/>
</svg>
