<svg width="24" height="24" viewBox="0 0 24 24" fill="none" xmlns="http://www.w3.org/2000/svg">
<path fill-rule="evenodd" clip-rule="evenodd" d="M3.75 1H20.25C20.9793 1 21.6788 1.28973 22.1945 1.80546C22.7103 2.32118 23 3.02065 23 3.75V20.25C23 20.9793 22.7103 21.6788 22.1945 22.1945C21.6788 22.7103 20.9793 23 20.25 23H3.75C3.02065 23 2.32118 22.7103 1.80546 22.1945C1.28973 21.6788 1 20.9793 1 20.25V3.75C1 3.02065 1.28973 2.32118 1.80546 1.80546C2.32118 1.28973 3.02065 1 3.75 1V1Z" stroke="#425B5E" stroke-opacity="0.4" stroke-linecap="round" stroke-linejoin="round"/>
<path d="M2.69849 6.49988H21.3823" stroke="#425B5E" stroke-opacity="0.4" stroke-linecap="round" stroke-linejoin="round"/>
<path d="M11.272 13.9006C12.0314 13.9006 12.647 13.285 12.647 12.5256C12.647 11.7662 12.0314 11.1506 11.272 11.1506C10.5126 11.1506 9.89697 11.7662 9.89697 12.5256C9.89697 13.285 10.5126 13.9006 11.272 13.9006Z" fill="#425B5E" fill-opacity="0.4"/>
<path d="M5.77197 13.9006C6.53136 13.9006 7.14697 13.285 7.14697 12.5256C7.14697 11.7662 6.53136 11.1506 5.77197 11.1506C5.01258 11.1506 4.39697 11.7662 4.39697 12.5256C4.39697 13.285 5.01258 13.9006 5.77197 13.9006Z" fill="#425B5E" fill-opacity="0.4"/>
<path d="M16.8933 13.9006C17.6527 13.9006 18.2683 13.285 18.2683 12.5256C18.2683 11.7662 17.6527 11.1506 16.8933 11.1506C16.1339 11.1506 15.5183 11.7662 15.5183 12.5256C15.5183 13.285 16.1339 13.9006 16.8933 13.9006Z" fill="#425B5E" fill-opacity="0.4"/>
<path d="M11.272 18.9963C12.0314 18.9963 12.647 18.3807 12.647 17.6213C12.647 16.8619 12.0314 16.2463 11.272 16.2463C10.5126 16.2463 9.89697 16.8619 9.89697 17.6213C9.89697 18.3807 10.5126 18.9963 11.272 18.9963Z" fill="#425B5E" fill-opacity="0.4"/>
<path d="M5.77197 18.9963C6.53136 18.9963 7.14697 18.3807 7.14697 17.6213C7.14697 16.8619 6.53136 16.2463 5.77197 16.2463C5.01258 16.2463 4.39697 16.8619 4.39697 17.6213C4.39697 18.3807 5.01258 18.9963 5.77197 18.9963Z" fill="#425B5E" fill-opacity="0.4"/>
</svg>
