<svg width="13" height="12" viewBox="0 0 13 12" fill="none" xmlns="http://www.w3.org/2000/svg">
<path opacity="0.4" d="M9.94177 12C9.81663 11.9996 9.69189 11.9865 9.56966 11.9609C7.24272 11.5015 5.09899 10.4242 3.38519 8.8532C1.70797 7.27871 0.544724 5.27404 0.0362007 3.08174C-0.0237606 2.80851 -0.00904377 2.52516 0.0789354 2.25893C0.166915 1.9927 0.325195 1.75257 0.538549 1.56163L2.02699 0.194235C2.10301 0.125612 2.19335 0.0730625 2.29209 0.0400152C2.39083 0.00696789 2.49576 -0.00583407 2.60004 0.00244484C2.70816 0.013211 2.8125 0.0464547 2.90572 0.0998382C2.99893 0.153222 3.07877 0.225449 3.1396 0.31144L5.00015 2.93612C5.06992 3.03796 5.1036 3.15849 5.09623 3.27997C5.08886 3.40145 5.04084 3.51746 4.95922 3.61094L4.02522 4.67644C4.3972 5.46223 4.924 6.17243 5.57692 6.76837C6.22562 7.38593 6.99237 7.87905 7.83563 8.221L8.99289 7.34374C9.09009 7.27042 9.20836 7.22707 9.33199 7.21946C9.45562 7.21185 9.57875 7.24033 9.68502 7.30112L12.4944 9.03433C12.5909 9.08928 12.673 9.16433 12.7347 9.25387C12.7964 9.34342 12.8361 9.44512 12.8508 9.55138C12.8654 9.65764 12.8547 9.76569 12.8194 9.86743C12.7842 9.96918 12.7252 10.062 12.647 10.1389L11.1958 11.5098C11.0309 11.6664 10.8353 11.7903 10.6201 11.8744C10.4048 11.9586 10.1743 12.0012 9.94177 12ZM2.5405 0.705675L1.05206 2.07307C0.932038 2.17981 0.843191 2.31454 0.794258 2.46399C0.745325 2.61345 0.737992 2.77249 0.772979 2.92547C1.24583 4.98264 2.33276 6.86508 3.90242 8.34531C5.51522 9.82335 7.53259 10.8366 9.72223 11.2683C9.88797 11.3014 10.0597 11.2947 10.2221 11.2488C10.3844 11.203 10.5323 11.1194 10.6525 11.0055L12.1037 9.63456L9.39105 7.96173L8.1482 8.90647C8.10062 8.94242 8.04455 8.96671 7.98489 8.97723C7.92522 8.98776 7.86376 8.98419 7.80586 8.96685C6.77389 8.60394 5.83868 8.02786 5.06713 7.27981C4.26908 6.56849 3.64962 5.69435 3.25495 4.72261C3.23826 4.66378 3.2377 4.60184 3.25334 4.54275C3.26898 4.48366 3.30029 4.4294 3.34426 4.3852L4.34896 3.23801L2.5405 0.705675Z" fill="#425B5E"/>
</svg>
